<svg width="32" height="32" viewBox="0 0 32 32" fill="none" xmlns="http://www.w3.org/2000/svg">
<path d="M18.3947 5.51469C18.0839 5.19373 17.7118 4.93852 17.3004 4.76423C16.889 4.58994 16.4468 4.50012 16 4.50012C15.5533 4.50012 15.111 4.58994 14.6997 4.76423C14.2883 4.93852 13.9162 5.19373 13.6054 5.51469L7.2067 12.1227C6.84003 12.5014 6.59336 12.9814 6.49736 13.5014C5.72152 17.7389 5.66428 22.0768 6.32803 26.3334L6.56269 27.84C6.63736 28.316 7.04803 28.6667 7.52936 28.6667H12C12.1768 28.6667 12.3464 28.5965 12.4714 28.4714C12.5965 28.3464 12.6667 28.1768 12.6667 28V18.6667H19.3334V28C19.3334 28.1768 19.4036 28.3464 19.5286 28.4714C19.6536 28.5965 19.8232 28.6667 20 28.6667H24.4707C24.704 28.6674 24.9297 28.5844 25.1069 28.4327C25.2841 28.2809 25.4009 28.0706 25.436 27.84L25.672 26.3334C26.3358 22.0768 26.2785 17.7389 25.5027 13.5014C25.4076 12.9815 25.1603 12.5017 24.792 12.1227L18.3947 5.51469Z" fill="#262626"/>
</svg>
