<svg width="47" height="54" viewBox="0 0 47 54" fill="none" xmlns="http://www.w3.org/2000/svg">
<g filter="url(#filter0_d_134_1386)">
<path d="M24.4332 29.574C20.6865 33.3353 21.1492 37.1033 22.8505 39.9413C18.9418 38.2747 15.3332 31.6667 20.3332 25.6667C25.6665 20.3333 24.6665 18 24.6665 16C26.3332 19 28.9372 25.0533 24.4332 29.574Z" fill="#6CFF39"/>
<path d="M23.6639 39.9997C22.8666 38.271 22.0346 34.0897 24.4506 31.6663C28.8026 27.1797 28.1039 23.2483 28.0073 23.011L27.9999 22.9997C28.0017 22.9997 28.0046 23.0035 28.0073 23.011C28.1866 23.2937 31.5999 28.831 29.0873 34.9997C30.5373 34.1623 31.1539 33.019 31.3333 32.6663C30.5826 38.749 26.7453 39.7503 23.6639 39.9997ZM22.3333 22.333C20.3333 23.555 15.8119 26.6663 15.5453 30.6663C15.2786 34.6663 17.5453 36.333 18.8786 37.6663C18.2119 36.6663 16.8786 34.1997 16.8786 30.9997C16.8786 27.7997 20.5553 23.7777 22.3333 22.333Z" fill="#6CFF39"/>
</g>
<defs>
<filter id="filter0_d_134_1386" x="0.823682" y="0.3" width="45.2096" height="53.3997" filterUnits="userSpaceOnUse" color-interpolation-filters="sRGB">
<feFlood flood-opacity="0" result="BackgroundImageFix"/>
<feColorMatrix in="SourceAlpha" type="matrix" values="0 0 0 0 0 0 0 0 0 0 0 0 0 0 0 0 0 0 127 0" result="hardAlpha"/>
<feOffset dy="-1"/>
<feGaussianBlur stdDeviation="7.35"/>
<feComposite in2="hardAlpha" operator="out"/>
<feColorMatrix type="matrix" values="0 0 0 0 0.424459 0 0 0 0 1 0 0 0 0 0.222242 0 0 0 0.4 0"/>
<feBlend mode="normal" in2="BackgroundImageFix" result="effect1_dropShadow_134_1386"/>
<feBlend mode="normal" in="SourceGraphic" in2="effect1_dropShadow_134_1386" result="shape"/>
</filter>
</defs>
</svg>
