<svg width="32" height="32" viewBox="0 0 32 32" fill="none" xmlns="http://www.w3.org/2000/svg">
<path fill-rule="evenodd" clip-rule="evenodd" d="M22.1626 20.2298L27.8213 25.8885L25.936 27.7751L20.2826 22.1218C18.3978 23.5413 16.0452 24.1943 13.6984 23.9492C11.3516 23.7042 9.18467 22.5793 7.63374 20.8011C6.0828 19.0228 5.26297 16.7231 5.33923 14.3647C5.41549 12.0064 6.38217 9.76441 8.04475 8.09005C9.70732 6.41568 11.9424 5.43318 14.3001 5.34025C16.6579 5.24733 18.9633 6.05089 20.7525 7.58922C22.5417 9.12755 23.6819 11.2865 23.9435 13.6315C24.2051 15.9765 23.5688 18.3336 22.1626 20.2285V20.2298ZM21.3333 14.6671C21.3333 12.899 20.6309 11.2033 19.3807 9.95308C18.1304 8.70283 16.4347 8.00046 14.6666 8.00046C12.8985 8.00046 11.2028 8.70283 9.95258 9.95308C8.70234 11.2033 7.99996 12.899 7.99996 14.6671C7.99996 16.4352 8.70234 18.1309 9.95258 19.3812C11.2028 20.6314 12.8985 21.3338 14.6666 21.3338C16.4347 21.3338 18.1304 20.6314 19.3807 19.3812C20.6309 18.1309 21.3333 16.4352 21.3333 14.6671Z" fill="white"/>
</svg>
