<svg width="33" height="32" viewBox="0 0 33 32" fill="none" xmlns="http://www.w3.org/2000/svg">
<path fill-rule="evenodd" clip-rule="evenodd" d="M22.841 20.2298L28.4996 25.8885L26.6143 27.7751L20.961 22.1218C19.0761 23.5413 16.7236 24.1943 14.3768 23.9492C12.0299 23.7042 9.86302 22.5793 8.31208 20.8011C6.76115 19.0228 5.94132 16.7231 6.01758 14.3647C6.09383 12.0064 7.06052 9.76441 8.72309 8.09005C10.3857 6.41568 12.6207 5.43318 14.9785 5.34025C17.3362 5.24733 19.6417 6.05089 21.4309 7.58922C23.2201 9.12755 24.3602 11.2865 24.6218 13.6315C24.8834 15.9765 24.2471 18.3336 22.841 20.2285V20.2298ZM22.0116 14.6671C22.0116 12.899 21.3093 11.2033 20.059 9.95308C18.8088 8.70283 17.1131 8.00046 15.345 8.00046C13.5769 8.00046 11.8812 8.70283 10.6309 9.95308C9.38068 11.2033 8.6783 12.899 8.6783 14.6671C8.6783 16.4352 9.38068 18.1309 10.6309 19.3812C11.8812 20.6314 13.5769 21.3338 15.345 21.3338C17.1131 21.3338 18.8088 20.6314 20.059 19.3812C21.3093 18.1309 22.0116 16.4352 22.0116 14.6671Z" fill="white"/>
</svg>
