<svg width="32" height="33" viewBox="0 0 32 33" fill="none" xmlns="http://www.w3.org/2000/svg">
<path d="M15.9997 23.6215C15.1952 23.6216 14.4202 23.3188 13.8289 22.7732C13.2377 22.2276 12.8736 21.4794 12.8093 20.6775C10.6752 19.9221 8.87656 18.437 7.73092 16.4845C6.58528 14.5319 6.16628 12.2374 6.54788 10.0059C6.92949 7.77446 8.08716 5.74956 9.81655 4.28866C11.5459 2.82775 13.7358 2.02478 15.9997 2.02148C18.4075 2.02114 20.7276 2.92562 22.4998 4.5556C24.272 6.18559 25.367 8.42203 25.5677 10.8215C25.5744 10.9256 25.5593 11.0299 25.5235 11.1278C25.4877 11.2258 25.4319 11.3152 25.3597 11.3905C25.2875 11.4657 25.2004 11.5251 25.104 11.5649C25.0076 11.6046 24.9039 11.6239 24.7997 11.6215C24.5854 11.6161 24.3807 11.5313 24.2255 11.3834C24.0702 11.2356 23.9755 11.0353 23.9597 10.8215C23.8172 9.40682 23.3002 8.05569 22.4621 6.9072C21.6239 5.75871 20.4948 4.85435 19.1909 4.28722C17.8871 3.7201 16.4557 3.5107 15.0441 3.6806C13.6324 3.85049 12.2916 4.39352 11.1595 5.2538C10.0275 6.11408 9.14519 7.26052 8.60344 8.57508C8.0617 9.88965 7.88008 11.3249 8.0773 12.7329C8.27451 14.141 8.84343 15.4711 9.72549 16.5862C10.6075 17.7014 11.7709 18.5613 13.0957 19.0775C13.3367 18.5566 13.7135 18.1102 14.1864 17.7849C14.6593 17.4596 15.2109 17.2676 15.7836 17.2288C16.3562 17.19 16.9288 17.306 17.4412 17.5645C17.9536 17.823 18.3871 18.2146 18.6961 18.6983C19.0052 19.1819 19.1785 19.7397 19.1979 20.3134C19.2173 20.887 19.0821 21.4553 18.8064 21.9587C18.5307 22.4621 18.1246 22.882 17.6308 23.1746C17.137 23.4671 16.5736 23.6215 15.9997 23.6215ZM8.01408 19.6215H8.15968C9.10425 20.5481 10.2055 21.3 11.4125 21.8423C11.7672 23.0126 12.5552 24.0034 13.6156 24.6124C14.6761 25.2214 15.929 25.4027 17.1186 25.1193C18.3081 24.8359 19.3447 24.1092 20.0166 23.0874C20.6886 22.0657 20.9452 20.826 20.7341 19.6215H23.9997C24.8484 19.6215 25.6623 19.9586 26.2624 20.5587C26.8625 21.1589 27.1997 21.9728 27.1997 22.8215C27.1997 25.5271 25.8669 27.5671 23.7837 28.8967C21.7325 30.2039 18.9677 30.8215 15.9997 30.8215C13.0317 30.8215 10.2669 30.2039 8.21568 28.8967C6.13248 27.5687 4.79968 25.5255 4.79968 22.8215C4.79968 21.0407 6.24448 19.6215 8.01408 19.6215ZM22.3997 11.6215C22.4 12.7041 22.1257 13.7691 21.6025 14.7169C21.0792 15.6647 20.324 16.4642 19.4077 17.0407C18.9614 16.5909 18.4305 16.2339 17.8456 15.9903C17.2607 15.7468 16.6333 15.6214 15.9997 15.6215C15.3661 15.6214 14.7387 15.7468 14.1538 15.9903C13.5689 16.2339 13.038 16.5909 12.5917 17.0407C11.3764 16.2764 10.4533 15.1257 9.97088 13.7735C9.72478 13.0827 9.59922 12.3548 9.59968 11.6215C9.59968 9.9241 10.274 8.29623 11.4742 7.096C12.6744 5.89577 14.3023 5.22148 15.9997 5.22148C17.6971 5.22148 19.3249 5.89577 20.5252 7.096C21.7254 8.29623 22.3997 9.9241 22.3997 11.6215Z" fill="white"/>
</svg>
