<svg width="33" height="32" viewBox="0 0 33 32" fill="none" xmlns="http://www.w3.org/2000/svg">
<path fill-rule="evenodd" clip-rule="evenodd" d="M28.1743 13.5613L28.1783 18.392C28.1436 18.8524 28.0996 19.312 28.0463 19.7707C27.999 20.1487 27.8257 20.4998 27.5542 20.7672C27.2827 21.0346 26.929 21.2025 26.5503 21.244C24.097 21.5187 21.5583 21.5187 19.105 21.244C18.7262 21.2025 18.3725 21.0346 18.101 20.7672C17.8296 20.4998 17.6562 20.1487 17.609 19.7707C17.3154 17.2655 17.3154 14.7345 17.609 12.2293C17.6562 11.8513 17.8296 11.5002 18.101 11.2328C18.3725 10.9655 18.7262 10.7975 19.105 10.756C21.5792 10.4824 24.0761 10.4824 26.5503 10.756C27.333 10.8427 27.957 11.4627 28.0463 12.2293C28.0978 12.6729 28.1405 13.1173 28.1743 13.5627M22.8276 14C22.2972 14 21.7885 14.2107 21.4134 14.5858C21.0383 14.9609 20.8276 15.4696 20.8276 16C20.8276 16.5304 21.0383 17.0391 21.4134 17.4142C21.7885 17.7893 22.2972 18 22.8276 18C23.3581 18 23.8668 17.7893 24.2418 17.4142C24.6169 17.0391 24.8276 16.5304 24.8276 16C24.8276 15.4696 24.6169 14.9609 24.2418 14.5858C23.8668 14.2107 23.3581 14 22.8276 14Z" fill="white"/>
<path d="M27.3663 8.05334C27.573 8.41201 27.1837 8.81334 26.7717 8.76801C24.1503 8.47908 21.5051 8.47908 18.8837 8.76801C18.0555 8.85949 17.2826 9.22833 16.6905 9.81459C16.0984 10.4009 15.722 11.1701 15.6223 11.9973C15.3132 14.6568 15.3132 17.3432 15.6223 20.0027C15.722 20.8299 16.0984 21.5992 16.6905 22.1854C17.2826 22.7717 18.0555 23.1405 18.8837 23.232C21.5051 23.5209 24.1503 23.5209 26.7717 23.232C27.1863 23.1853 27.5797 23.5907 27.3703 23.952C26.8469 24.8549 26.1175 25.6215 25.2417 26.1891C24.3658 26.7568 23.3683 27.1095 22.3303 27.2187L21.461 27.3093C17.0465 27.7731 12.594 27.7422 8.18633 27.2173L7.61033 27.1493C6.45489 27.0121 5.378 26.4941 4.54946 25.6772C3.72092 24.8602 3.18786 23.7907 3.03433 22.6373C2.44591 18.232 2.44591 13.768 3.03433 9.36268C3.18786 8.20928 3.72092 7.1398 4.54946 6.32284C5.378 5.50589 6.45489 4.98795 7.61033 4.85068L8.18633 4.78268C12.594 4.25778 17.0465 4.22692 21.461 4.69068L22.3303 4.78268C23.3683 4.8918 24.3657 5.24503 25.2409 5.81348C26.1162 6.38194 26.8445 7.14948 27.3663 8.05334Z" fill="white"/>
</svg>
